<?xml version="1.0" encoding="UTF-8"?>
<!DOCTYPE svg PUBLIC "-//W3C//DTD SVG 1.1//EN" "http://www.w3.org/Graphics/SVG/1.1/DTD/svg11.dtd">
<!-- Creator: CorelDRAW X8 -->
<svg xmlns="http://www.w3.org/2000/svg" xml:space="preserve" width="3.9447mm" height="3.7033mm" version="1.1" style="shape-rendering:geometricPrecision; text-rendering:geometricPrecision; image-rendering:optimizeQuality; fill-rule:evenodd; clip-rule:evenodd"
viewBox="0 0 20410 19161"
 xmlns:xlink="http://www.w3.org/1999/xlink">
 <defs>
  <style type="text/css">
   <![CDATA[
    .fil0 {fill:#fff}
   ]]>
  </style>
 </defs>
 <g id="Camada_x0020_1">
  <metadata id="CorelCorpID_0Corel-Layer"/>
  <path class="fil0" d="M17313 9269l-1919 1731c-368,332 -368,896 0,1228 165,149 381,230 603,230 221,0 438,-81 602,-230l3532 -3184c85,-78 155,-168 202,-269 96,-217 106,-461 9,-675 -52,-110 -118,-207 -208,-288l-3472 -3131c-338,-305 -868,-305 -1205,0 -369,332 -369,895 0,1227l1857 1675 -5674 0c-470,0 -877,364 -877,843 0,480 407,843 877,843l5673 0zm-7509 7584l3510 0c470,0 880,-362 880,-842l0 -4572c0,-479 -410,-843 -880,-843 -469,0 -879,364 -879,843l0 3728 -2631 0 0 -12017c0,-382 -265,-703 -627,-807l-2290 -656 5548 0 0 3726c0,480 409,843 879,843 471,0 880,-363 880,-843l0 -4570c0,-480 -410,-843 -880,-843l-12434 0c-42,0 -82,5 -133,15 -31,4 -62,11 -92,19 -57,14 -111,33 -173,62 -16,6 -32,13 -53,22l-33 12 -83 71c-26,19 -49,41 -73,67 -61,62 -113,131 -151,210 -10,20 -20,41 -29,65 -39,95 -60,198 -60,300l0 15168c0,114 24,218 72,326 13,31 30,61 50,93 31,52 67,100 109,145l12 14 64 59 22 16c50,37 103,70 159,97 48,24 95,41 141,58l8040 2306c84,23 169,36 256,36 171,0 344,-47 488,-141 240,-157 391,-412 391,-702l0 -1465zm-1757 333l-6288 -1803 0 -13408 6288 1804 0 13407z"/>
 </g>
</svg>
