<?xml version="1.0" encoding="UTF-8"?>
<!DOCTYPE svg PUBLIC "-//W3C//DTD SVG 1.1//EN" "http://www.w3.org/Graphics/SVG/1.1/DTD/svg11.dtd">
<!-- Creator: CorelDRAW X8 -->
<svg xmlns="http://www.w3.org/2000/svg" xml:space="preserve" width="4.0693mm" height="3.6405mm" version="1.1" style="shape-rendering:geometricPrecision; text-rendering:geometricPrecision; image-rendering:optimizeQuality; fill-rule:evenodd; clip-rule:evenodd"
viewBox="0 0 21349 19099"
 xmlns:xlink="http://www.w3.org/1999/xlink" fill="#E61E1E">
  <style type="text/css">
   <![CDATA[
    .fil0 {fill:#000}
   ]]>
  </style>
 <g id="Camada_x0020_1">
  <metadata id="CorelCorpID_0Corel-Layer"/>
  <path class="fil0" d="M10674 1911l-9317 6822c-380,278 -913,195 -1192,-185 -278,-379 -196,-914 184,-1192l9822 -7191c139,-102 307,-160 490,-165l37 0c173,5 340,62 480,165l9822 7191c380,278 462,812 184,1192 -161,220 -416,349 -689,349 -181,0 -357,-57 -503,-164l-9318 -6822zm-6684 15482l3678 0 0 -4363c0,-1658 1348,-3006 3006,-3006 1659,0 3007,1347 3007,3006l0 4363 3677 0 0 -8254c0,-471 382,-853 853,-853 471,0 853,382 853,853l0 9107c0,471 -381,853 -853,853l-5383 0c-445,0 -815,-343 -851,-786 -1,-23 -2,-45 -2,-67l0 -5216c0,-717 -584,-1300 -1301,-1300 -716,0 -1300,583 -1300,1300l0 5216c0,27 0,51 -3,70 -35,444 -405,783 -850,783l-5383 0c-472,0 -854,-382 -854,-853l0 -9107c0,-471 383,-853 854,-853 471,0 852,382 852,853l0 8254z"/>
 </g>
</svg>
