<?xml version="1.0" encoding="UTF-8"?>
<!DOCTYPE svg PUBLIC "-//W3C//DTD SVG 1.1//EN" "http://www.w3.org/Graphics/SVG/1.1/DTD/svg11.dtd">
<!-- Creator: CorelDRAW X8 -->
<svg xmlns="http://www.w3.org/2000/svg" xml:space="preserve" width="3.917mm" height="2.8456mm" version="1.1" style="shape-rendering:geometricPrecision; text-rendering:geometricPrecision; image-rendering:optimizeQuality; fill-rule:evenodd; clip-rule:evenodd"
viewBox="0 0 19820 14399"
 xmlns:xlink="http://www.w3.org/1999/xlink">
 <defs>
  <style type="text/css">
   <![CDATA[
    .fil0 {fill:#E61E1E}
   ]]>
  </style>
 </defs>
 <g id="Camada_x0020_1">
  <metadata id="CorelCorpID_0Corel-Layer"/>
  <path class="fil0" d="M19820 2445l0 9508c0,1349 -1097,2446 -2446,2446l-14929 0c-1348,0 -2445,-1097 -2445,-2446l0 -9508c0,-1342 1090,-2445 2435,-2445l14950 0c1345,0 2435,1103 2435,2445zm-1433 148l0 -148c0,-558 -455,-1012 -1013,-1012l-14929 0c-558,0 -1012,454 -1012,1012l0 148 16954 0zm-16954 4026l0 5334c0,558 454,1013 1012,1013l14929 0c558,0 1013,-455 1013,-1013l0 -5334 -16954 0zm7063 3458l-5186 0c-395,0 -717,-321 -717,-717 0,-395 322,-716 717,-716l5186 0c395,0 716,321 716,716 0,396 -321,717 -716,717zm7150 1728l-864 0c-872,0 -1582,-709 -1582,-1580l0 -865c0,-871 710,-1581 1582,-1581l864 0c872,0 1581,710 1581,1581l0 865c0,871 -709,1580 -1581,1580zm-7150 0l-5186 0c-395,0 -717,-321 -717,-716 0,-395 322,-717 717,-717l5186 0c395,0 716,322 716,717 0,395 -321,716 -716,716zm6286 -2592c-82,0 -148,65 -148,147l0 865c0,81 66,147 148,147l864 0c81,0 148,-66 148,-147l0 -865c0,-82 -67,-147 -148,-147l-864 0zm3605 -5187l-16954 0 0 1160 16954 0 0 -1160z"/>
 </g>
</svg>
