<?xml version="1.0" encoding="UTF-8"?>
<!DOCTYPE svg PUBLIC "-//W3C//DTD SVG 1.1//EN" "http://www.w3.org/Graphics/SVG/1.1/DTD/svg11.dtd">
<!-- Creator: CorelDRAW X8 -->
<svg xmlns="http://www.w3.org/2000/svg" xml:space="preserve" width="3.6637mm" height="4.085mm" version="1.1" style="shape-rendering:geometricPrecision; text-rendering:geometricPrecision; image-rendering:optimizeQuality; fill-rule:evenodd; clip-rule:evenodd"
viewBox="0 0 17396 19397"
 xmlns:xlink="http://www.w3.org/1999/xlink">
 <defs>
  <style type="text/css">
   <![CDATA[
    .fil0 {fill:#E61E1E}
   ]]>
  </style>
 </defs>
 <g id="Camada_x0020_1">
  <metadata id="CorelCorpID_0Corel-Layer"/>
  <path class="fil0" d="M4898 2904c-1,-38 -2,-76 -2,-114 2,-1540 1250,-2786 2790,-2790 670,-1 1317,240 1820,677 784,-440 1667,-677 2568,-677l61 0c1050,0 2071,326 2939,915 1717,1166 2601,3253 2243,5297 -346,1982 -1784,3590 -3699,4163l0 1198c89,1221 593,2370 1427,3266 333,358 419,885 221,1333 -195,440 -632,725 -1110,720l-3424 0c-283,1443 -1552,2505 -3046,2505 -1494,0 -2763,-1062 -3046,-2505l-3421 0c-483,5 -919,-280 -1114,-720 -197,-447 -113,-974 221,-1332 837,-895 1342,-2044 1428,-3257l0 -3451c0,-2195 1216,-4203 3144,-5228zm9602 1637c423,0 766,344 766,766 0,423 -343,766 -766,766 -422,0 -766,-343 -766,-766 0,-422 344,-766 766,-766zm-2348 0c423,0 766,344 766,766 0,423 -343,766 -766,766 -423,0 -765,-343 -765,-766 0,-422 342,-766 765,-766zm-2348 0c423,0 766,344 766,766 0,423 -343,766 -766,766 -422,0 -765,-343 -765,-766 0,-422 343,-766 765,-766zm-288 12351l-3661 0c253,782 985,1333 1831,1333 846,0 1577,-551 1830,-1333zm-1171 -7193l1770 -590c134,-45 281,-40 412,13 494,203 1023,306 1557,305 2276,-3 4122,-1847 4124,-4123 1,-2277 -1847,-4123 -4123,-4123 -2278,0 -4120,1846 -4123,4123 -1,882 280,1742 807,2450 118,159 149,368 82,554l-506 1391zm-2222 -7285c509,-141 1035,-213 1563,-214 33,0 67,1 100,2 210,-289 449,-557 712,-798 -244,-146 -524,-224 -811,-223 -756,1 -1390,522 -1564,1233zm6314 8180c-727,53 -1463,-49 -2149,-298l-2114 706c-92,31 -190,47 -288,46 -294,-1 -571,-146 -739,-388 -168,-242 -207,-551 -107,-828l596 -1639c-925,-1421 -1107,-3204 -503,-4775 -2366,275 -4199,2283 -4199,4714l0 3473c-90,1507 -705,2937 -1740,4038 -13,14 -15,34 22,68l12970 -19c8,-17 5,-38 -9,-52 -1034,-1100 -1650,-2529 -1740,-4051l0 -995zm-8319 -1605c-157,0 -307,-63 -417,-173 -110,-111 -174,-261 -174,-417 -1,-1421 645,-2765 1752,-3646 164,-136 390,-174 588,-98 200,75 343,254 374,465 31,209 -54,420 -220,551 -831,661 -1313,1667 -1312,2727 0,326 -265,591 -591,591z"/>
 </g>
</svg>
