<?xml version="1.0" encoding="UTF-8"?>
<!DOCTYPE svg PUBLIC "-//W3C//DTD SVG 1.1//EN" "http://www.w3.org/Graphics/SVG/1.1/DTD/svg11.dtd">
<!-- Creator: CorelDRAW X8 -->
<svg xmlns="http://www.w3.org/2000/svg" xml:space="preserve" width="2.9584mm" height="3.6621mm" version="1.1" style="shape-rendering:geometricPrecision; text-rendering:geometricPrecision; image-rendering:optimizeQuality; fill-rule:evenodd; clip-rule:evenodd"
viewBox="0 0 11448 14171"
 xmlns:xlink="http://www.w3.org/1999/xlink">
 <defs>
  <style type="text/css">
   <![CDATA[
    .fil0 {fill:#E61E1E}
   ]]>
  </style>
 </defs>
 <g id="Camada_x0020_1">
  <metadata id="CorelCorpID_0Corel-Layer"/>
  <path class="fil0" d="M11442 12020c4,23 6,46 6,70 0,1235 -1136,2081 -2312,2081l-6824 0c-1176,0 -2312,-846 -2312,-2081 0,-17 2,-32 4,-56l781 -8797c30,-331 304,-584 637,-584l1358 0c154,-1491 1417,-2653 2944,-2653 1526,0 2790,1162 2943,2653l1359 0c331,0 608,254 637,584l779 8783zm-7369 -9367l3301 0c-144,-782 -831,-1372 -1650,-1372 -820,0 -1507,591 -1651,1372zm5366 1284l-756 0 0 880c0,355 -286,640 -641,640 -355,0 -640,-285 -640,-640l0 -880 -3359 0 0 880c0,355 -286,640 -640,640 -355,0 -641,-285 -641,-640l0 -880 -756 0 -725 8173c9,509 579,780 1031,780l6824 0c450,0 1021,-273 1032,-766l-729 -8187z"/>
 </g>
</svg>
