<?xml version="1.0" encoding="UTF-8"?>
<!DOCTYPE svg PUBLIC "-//W3C//DTD SVG 1.1//EN" "http://www.w3.org/Graphics/SVG/1.1/DTD/svg11.dtd">
<!-- Creator: CorelDRAW X8 -->
<svg xmlns="http://www.w3.org/2000/svg" xml:space="preserve" width="3.5934mm" height="3.5933mm" version="1.1" style="shape-rendering:geometricPrecision; text-rendering:geometricPrecision; image-rendering:optimizeQuality; fill-rule:evenodd; clip-rule:evenodd"
viewBox="0 0 31956 31955"
 xmlns:xlink="http://www.w3.org/1999/xlink">
 <defs>
  <style type="text/css">
   <![CDATA[
    .fil0 {fill:#FFFFFF}
   ]]>
  </style>
 </defs>
 <g id="Camada_x0020_1">
  <metadata id="CorelCorpID_0Corel-Layer"/>
  <path class="fil0" d="M28069 20054c-183,542 -405,1071 -658,1584l1090 1531c691,970 578,2302 -264,3144l-1924 1924c-461,460 -1073,717 -1725,717 -511,0 -1005,-157 -1420,-454l-1524 -1089c-513,255 -1042,474 -1584,657l-314 1848c-201,1179 -1214,2039 -2410,2039l-2723 0c-1196,0 -2215,-860 -2411,-2040l-308 -1848c-519,-176 -1027,-383 -1520,-624l-1550 1103c-414,295 -902,454 -1412,454 -652,0 -1265,-258 -1726,-719l-1923 -1922c-842,-843 -958,-2178 -262,-3147l1079 -1501c-257,-511 -480,-1039 -666,-1580l-1876 -321c-1177,-201 -2038,-1214 -2038,-2410l0 -2716c0,-1196 860,-2212 2039,-2411l1820 -307c179,-544 394,-1076 647,-1591l-1104 -1550c-690,-969 -578,-2307 265,-3146l1926 -1919c456,-464 1078,-720 1729,-720 510,0 1006,156 1421,455l1507 1086c511,-258 1040,-481 1581,-667l320 -1876c200,-1178 1214,-2038 2410,-2038l2717 0c1196,0 2211,861 2410,2039l307 1820c570,187 1126,418 1664,685l1529 -1090c415,-295 904,-454 1412,-454 652,0 1266,257 1726,718l1923 1924c842,842 956,2175 263,3145l-1088 1523c254,514 473,1044 656,1585l1849 314c1181,201 2042,1217 2026,2410l0 2717c0,1196 -860,2212 -2040,2410l-1846 308zm1093 -3027l2 -2101 -2399 -406c-550,-84 -994,-495 -1132,-1033 -231,-902 -591,-1764 -1066,-2564 -281,-476 -257,-1079 64,-1530l1415 -1988 -1489 -1489 -1978 1422c-454,321 -1048,344 -1526,63 -821,-483 -1704,-846 -2628,-1078 -542,-136 -950,-583 -1042,-1133l-400 -2387 -2102 0 -414 2428c-92,541 -496,983 -1029,1123 -898,236 -1762,602 -2559,1077 -479,285 -1084,262 -1538,-61l-1975 -1409 -1490 1489 1429 2008c319,450 350,1044 70,1521 -471,801 -820,1670 -1046,2570 -136,543 -582,949 -1133,1042l-2387 401 0 2101 2428 413c542,92 984,498 1123,1030 237,899 603,1761 1078,2559 285,478 261,1084 -62,1537l-1409 1975 1490 1491 2000 -1424c236,-174 526,-265 820,-265 244,0 491,64 704,187 787,452 1634,804 2513,1031 536,138 942,579 1033,1125l400 2406 2101 0 406 -2399c84,-552 496,-995 1034,-1132 901,-232 1763,-591 2564,-1066 475,-282 1079,-258 1529,62l1989 1416 1490 -1489 -1417 -1996c-321,-453 -345,-1051 -62,-1529 475,-800 833,-1663 1065,-2564 138,-537 580,-941 1126,-1033l2410 -401z"/>
 </g>
</svg>
