<?xml version="1.0" encoding="UTF-8"?>
<!DOCTYPE svg PUBLIC "-//W3C//DTD SVG 1.1//EN" "http://www.w3.org/Graphics/SVG/1.1/DTD/svg11.dtd">
<!-- Creator: CorelDRAW X8 -->
<svg xmlns="http://www.w3.org/2000/svg" xml:space="preserve" width="4.2144mm" height="3.4957mm" version="1.1" style="shape-rendering:geometricPrecision; text-rendering:geometricPrecision; image-rendering:optimizeQuality; fill-rule:evenodd; clip-rule:evenodd"
viewBox="0 0 22856 18958"
 xmlns:xlink="http://www.w3.org/1999/xlink">
 <defs>
  <style type="text/css">
   <![CDATA[
    .fil0 {fill:#FFFFFF}
   ]]>
  </style>
 </defs>
 <g id="Camada_x0020_1">
  <metadata id="CorelCorpID_0Corel-Layer"/>
  <g id="_3154483875904">
   <path class="fil0" d="M9848 9118c309,141 608,304 894,489 1922,1240 3208,3591 3208,5878l0 337c0,1733 -1403,3136 -3135,3136l-2300 0c-890,0 -1779,0 -2669,0l-2710 0c-1733,0 -3136,-1403 -3136,-3136l0 -337c0,-2288 1286,-4638 3208,-5878 287,-185 586,-348 895,-488 -789,-767 -1248,-1829 -1248,-2958 0,-1952 1375,-3643 3284,-4038 661,-136 1345,-109 1993,80 1755,515 2963,2129 2963,3958 0,1129 -459,2191 -1247,2957zm-3473 -5222c-1027,269 -1747,1202 -1747,2265 0,1099 771,2054 1842,2287 391,85 813,69 1195,-48 981,-301 1658,-1211 1658,-2239 0,-1015 -658,-1916 -1620,-2228 -424,-137 -898,-150 -1328,-37zm-33 6425c-2602,315 -4569,2541 -4569,5164l0 337c0,746 608,1354 1352,1354l2817 0c858,0 1716,0 2573,0l2310 0c745,0 1352,-608 1352,-1354l0 -337c0,-2662 -2024,-4908 -4672,-5176 -361,-37 -802,-33 -1163,12z"/>
   <path class="fil0" d="M17421 15138l-2573 0 -908 0c7,116 10,232 10,347l0 337c0,387 -70,757 -198,1099l1000 0 2669 0 2300 0c1732,0 3135,-1403 3135,-3136l0 -337c0,-2288 -1286,-4638 -3208,-5878 -286,-185 -585,-348 -895,-489 789,-766 1248,-1828 1248,-2957 0,-1829 -1208,-3443 -2963,-3958 -648,-190 -1332,-217 -1993,-80 -1909,395 -3284,2085 -3284,4038 0,1129 459,2191 1248,2958 -309,140 -608,303 -894,488 -709,456 -1331,1064 -1834,1764 157,85 311,176 461,273 339,219 658,472 954,754 825,-1118 2088,-1900 3552,-2078 361,-44 802,-48 1163,-11 2648,268 4673,2514 4673,5176l0 337c0,746 -608,1353 -1353,1353l-2310 0zm-850 -8775c-382,117 -804,133 -1195,48 -1071,-233 -1842,-1189 -1842,-2287 0,-1063 720,-1996 1747,-2265 430,-113 904,-100 1328,37 962,312 1620,1213 1620,2228 0,1028 -677,1938 -1658,2239z"/>
  </g>
 </g>
</svg>
