<?xml version="1.0" encoding="UTF-8"?>
<!DOCTYPE svg PUBLIC "-//W3C//DTD SVG 1.1//EN" "http://www.w3.org/Graphics/SVG/1.1/DTD/svg11.dtd">
<!-- Creator: CorelDRAW X8 -->
<svg xmlns="http://www.w3.org/2000/svg" xml:space="preserve" width="3.138mm" height="5.3279mm" version="1.1" style="shape-rendering:geometricPrecision; text-rendering:geometricPrecision; image-rendering:optimizeQuality; fill-rule:evenodd; clip-rule:evenodd"
viewBox="0 0 12850 21817"
 xmlns:xlink="http://www.w3.org/1999/xlink">
 <defs>
  <style type="text/css">
   <![CDATA[
    .fil0 {fill:#FFFFFF}
   ]]>
  </style>
 </defs>
 <g id="Camada_x0020_1">
  <metadata id="CorelCorpID_0Corel-Layer"/>
  <path class="fil0" d="M3357 1947c558,-1185 1753,-1947 3070,-1947 1317,0 2511,761 3070,1947l1910 0c796,0 1443,645 1443,1442 0,797 -647,1443 -1443,1443l-1912 0c-147,298 -336,573 -562,816l373 0c1926,0 3090,1229 3090,3089l0 4131c0,2355 -1214,3970 -3488,4420l0 2046c0,1371 -1111,2483 -2483,2483 -1371,0 -2483,-1112 -2483,-2483l0 -2048c-2272,-482 -3508,-2031 -3508,-4418l0 -4119c0,-1925 1230,-3090 3090,-3090l382 0c-223,-246 -410,-526 -552,-827l-1911 0c-797,0 -1443,-646 -1443,-1443 0,-797 646,-1442 1443,-1442l1914 0zm4428 17387l0 -4996c0,-751 -609,-1361 -1360,-1361 -752,0 -1360,609 -1360,1361l0 4996c0,751 609,1360 1360,1360 751,0 1360,-609 1360,-1360zm-3843 -3194l0 -1802c0,-1372 1112,-2483 2483,-2483 1371,0 2483,1111 2483,2483l0 1802c1608,-399 2365,-1582 2365,-3272l0 -4131c0,-1265 -671,-1966 -1967,-1966l-5762 0c-1266,0 -1967,670 -1967,1966l0 4131c0,1698 751,2872 2365,3272zm5859 -13082c22,213 22,427 0,639l1606 0c177,0 319,-143 319,-319 0,-177 -142,-320 -319,-320l-1606 0zm-3378 -1955c-1253,1 -2269,1017 -2270,2270 -1,1255 1016,2271 2270,2271 1254,0 2270,-1017 2270,-2271 0,-1253 -1016,-2271 -2270,-2270zm-4814 1955l0 12 -166 0c-177,0 -320,143 -320,319 0,176 143,320 320,320l1605 0c-22,-217 -22,-435 0,-651l-1439 0z"/>
 </g>
</svg>
