<?xml version="1.0" encoding="UTF-8"?>
<!DOCTYPE svg PUBLIC "-//W3C//DTD SVG 1.1//EN" "http://www.w3.org/Graphics/SVG/1.1/DTD/svg11.dtd">
<!-- Creator: CorelDRAW X8 -->
<svg xmlns="http://www.w3.org/2000/svg" xml:space="preserve" width="3.5873mm" height="3.5873mm" version="1.1" style="shape-rendering:geometricPrecision; text-rendering:geometricPrecision; image-rendering:optimizeQuality; fill-rule:evenodd; clip-rule:evenodd"
viewBox="0 0 16695 16695"
 xmlns:xlink="http://www.w3.org/1999/xlink">
 <defs>
  <style type="text/css">
   <![CDATA[
    .fil0 {fill:#FFFFFF}
   ]]>
  </style>
 </defs>
 <g id="Camada_x0020_1">
  <metadata id="CorelCorpID_0Corel-Layer"/>
  <path class="fil0" d="M8347 0c-4613,0 -8347,3734 -8347,8347 0,4614 3733,8348 8347,8348 4614,0 8348,-3734 8348,-8348 0,-4614 -3734,-8347 -8348,-8347zm0 15180c-3776,0 -6832,-3057 -6832,-6833 0,-3776 3056,-6832 6832,-6832 3776,0 6833,3056 6833,6832 0,3777 -3056,6833 -6833,6833zm840 -5807c1099,-362 1848,-1395 1848,-2553 0,-1482 -1206,-2687 -2688,-2687 -1482,0 -2687,1205 -2687,2687 0,418 339,757 758,757 418,0 757,-339 757,-757 0,-646 526,-1172 1172,-1172 647,0 1172,525 1172,1172 0,646 -525,1172 -1172,1172 -418,0 -757,339 -757,757l0 1608c0,419 339,758 757,758 419,0 758,-339 758,-758l0 -958 82 -26zm79 2914c0,-507 -412,-919 -919,-919 -507,0 -918,412 -918,919 0,507 411,918 918,918 507,0 919,-411 919,-918z"/>
 </g>
</svg>
