<?xml version="1.0" encoding="UTF-8"?>
<!DOCTYPE svg PUBLIC "-//W3C//DTD SVG 1.1//EN" "http://www.w3.org/Graphics/SVG/1.1/DTD/svg11.dtd">
<!-- Creator: CorelDRAW X8 -->
<svg xmlns="http://www.w3.org/2000/svg" xml:space="preserve" width="3.8216mm" height="2.8662mm" version="1.1" style="shape-rendering:geometricPrecision; text-rendering:geometricPrecision; image-rendering:optimizeQuality; fill-rule:evenodd; clip-rule:evenodd"
viewBox="0 0 18889 14167"
 xmlns:xlink="http://www.w3.org/1999/xlink">
 <defs>
  <style type="text/css">
   <![CDATA[
    .fil0 {fill:#FFFFFF;fill-rule:nonzero}
   ]]>
  </style>
 </defs>
 <g id="Camada_x0020_1">
  <metadata id="CorelCorpID_0Corel-Layer"/>
  <path class="fil0" d="M17119 14167l-15348 0c-976,0 -1771,-794 -1771,-1771l0 -2951c0,-327 264,-591 591,-591 976,0 1770,-794 1770,-1770 0,-977 -794,-1771 -1770,-1771 -327,0 -591,-264 -591,-591l0 -2951c0,-977 795,-1771 1771,-1771l15348 0c976,0 1770,794 1770,1771l0 2951c0,327 -264,591 -590,591 -976,0 -1771,794 -1771,1771 0,976 795,1770 1771,1770 326,0 590,264 590,591l0 2951c0,977 -794,1771 -1770,1771zm-10467 -6885c-976,0 -1771,-794 -1771,-1771 0,-976 795,-1771 1771,-1771 977,0 1771,795 1771,1771 0,977 -794,1771 -1771,1771zm6102 3661c-977,0 -1772,-794 -1772,-1771 0,-976 795,-1770 1772,-1770 976,0 1771,794 1771,1770 0,977 -795,1771 -1771,1771zm1221 -7895l-1 -1c-264,-264 -696,-264 -961,0l-7110 7111c-265,264 -265,696 0,961l1 1c264,264 696,264 961,0l7110 -7111c265,-264 265,-696 0,-961zm-1221 5534c-326,0 -590,265 -590,590 0,326 264,591 590,591 326,0 590,-265 590,-591 0,-325 -264,-590 -590,-590zm-6102 -3660c-326,0 -590,264 -590,589 0,326 264,591 590,591 326,0 590,-265 590,-591 0,-325 -264,-589 -590,-589zm-5472 5054l0 2420c0,326 265,590 591,590l15348 0c325,0 590,-264 590,-590l0 -2420c-1345,-275 -2362,-1467 -2362,-2892 0,-1426 1017,-2618 2362,-2893l0 -2420c0,-326 -265,-590 -590,-590l-15348 0c-326,0 -591,264 -591,590l0 2420c1346,275 2362,1467 2362,2893 0,1425 -1016,2617 -2362,2892z"/>
 </g>
</svg>
